static pose
version=1
nRows=1
nColumns=38
inDegrees=yes
endheader
time	pelvis_tilt	pelvis_list	pelvis_rotation	pelvis_tx	pelvis_ty	pelvis_tz	hip_flexion_r	hip_adduction_r	hip_rotation_r	knee_angle_r	ankle_angle_r	subtalar_angle_r	mtp_angle_r	hip_flexion_l	hip_adduction_l	hip_rotation_l	knee_angle_l	ankle_angle_l	subtalar_angle_l	mtp_angle_l	lumbar_extension	lumbar_bending	lumbar_rotation	arm_flex_r	arm_add_r	arm_rot_r	elbow_flex_r	pro_sup_r	wrist_flex_r	wrist_dev_r	arm_flex_l	arm_add_l	arm_rot_l	elbow_flex_l	pro_sup_l	wrist_flex_l	wrist_dev_l
      0.00000000	      5.87922683	     -2.03669436	     -3.07289470	     -0.07620804	      0.90131650	     -0.04404577	     -5.23452043	     -1.14131269	      4.34980558	     -8.58875188	      9.46112901	      0.00000000	      0.00000000	     -9.36905957	     -5.34104592	     -8.08641657	     -2.52948605	      8.81059722	      0.00000000	      0.00000000	     -7.28246832	      2.87685689	     -1.17597697	      1.08793733	    -14.76860458	     -2.86231276	     30.87596674	    107.13870953	      0.00000000	      0.00000000	      2.90427129	    -12.23246763	     -2.31529964	     30.76671025	    106.87248399	      0.00000000	      0.00000000
